<?xml version="1.0" standalone="no"?><!DOCTYPE svg PUBLIC "-//W3C//DTD SVG 1.1//EN" "http://www.w3.org/Graphics/SVG/1.1/DTD/svg11.dtd"><svg t="1620813491595" class="icon" viewBox="0 0 1024 1024" version="1.1" xmlns="http://www.w3.org/2000/svg" p-id="990" xmlns:xlink="http://www.w3.org/1999/xlink" width="200" height="200"><defs><style type="text/css"></style></defs><path d="M455.548427 911.182158a451.271369 451.271369 0 0 1-322.055584-133.47925 455.534834 455.534834 0 1 1 644.111169 0 451.271369 451.271369 0 0 1-322.055585 133.47925z m0-812.354056a356.819222 356.819222 0 1 0 252.52831 104.290912A356.491263 356.491263 0 0 0 455.548427 98.828102z" fill="#060404" p-id="991"></path><path d="M974.707277 1024a49.521785 49.521785 0 0 1-34.763638-14.430189l-143.318014-143.318015a49.193827 49.193827 0 0 1 69.527275-69.527275l143.318014 143.318015a48.865868 48.865868 0 0 1 0 69.527275 49.521785 49.521785 0 0 1-34.763637 14.430189z" fill="#2DAF62" p-id="992"></path></svg>